<mxfile host="app.diagrams.net" modified="2020-12-16T04:06:56.989Z" agent="5.0 (Macintosh)" etag="2IZSc6rOwmrdzHTMxw-N" version="14.0.3" type="github">
  <diagram id="GICMYqtLOTgYG2fSYfgr" name="Page-1">
    <mxGraphModel dx="1722" dy="969" grid="1" gridSize="10" guides="1" tooltips="1" connect="1" arrows="1" fold="1" page="1" pageScale="1" pageWidth="1100" pageHeight="850" math="0" shadow="0">
      <root>
        <mxCell id="0" />
        <mxCell id="1" parent="0" />
        <mxCell id="E_Wd-ubweMT3_UfSxpYX-21" value="" style="rounded=1;absoluteArcSize=1;html=1;arcSize=10;fontFamily=Tahoma;fillColor=#eeeeee;strokeColor=#36393d;" vertex="1" parent="1">
          <mxGeometry x="470" y="340" width="200" height="230" as="geometry" />
        </mxCell>
        <mxCell id="E_Wd-ubweMT3_UfSxpYX-22" value="" style="html=1;shape=mxgraph.er.anchor;whiteSpace=wrap;fontFamily=Tahoma;" vertex="1" parent="E_Wd-ubweMT3_UfSxpYX-21">
          <mxGeometry width="90" height="230" as="geometry" />
        </mxCell>
        <mxCell id="E_Wd-ubweMT3_UfSxpYX-23" value="Peer" style="rounded=1;absoluteArcSize=1;html=1;arcSize=10;whiteSpace=wrap;points=[];strokeColor=#10739e;fillColor=#b1ddf0;fontFamily=Tahoma;" vertex="1" parent="E_Wd-ubweMT3_UfSxpYX-21">
          <mxGeometry x="120" y="60" width="65" height="152.14" as="geometry" />
        </mxCell>
        <mxCell id="E_Wd-ubweMT3_UfSxpYX-25" value="HTTP Server" style="rounded=1;absoluteArcSize=1;html=1;arcSize=10;whiteSpace=wrap;points=[];strokeColor=#ae4132;fillColor=#fad9d5;fontFamily=Tahoma;" vertex="1" parent="E_Wd-ubweMT3_UfSxpYX-21">
          <mxGeometry x="15" y="60" width="75" height="152.14" as="geometry" />
        </mxCell>
        <mxCell id="E_Wd-ubweMT3_UfSxpYX-28" value="Middleware" style="text;spacingLeft=4;spacingRight=4;overflow=hidden;rotatable=0;points=[[0,0.5],[1,0.5]];portConstraint=eastwest;fontSize=14;fontStyle=0;fontFamily=Tahoma;fillColor=none;dashed=1;" vertex="1" parent="E_Wd-ubweMT3_UfSxpYX-21">
          <mxGeometry x="60" y="10" width="100" height="30" as="geometry" />
        </mxCell>
        <mxCell id="E_Wd-ubweMT3_UfSxpYX-49" value="" style="endArrow=classic;startArrow=classic;html=1;fontFamily=Tahoma;fontSize=14;entryX=0;entryY=0.56;entryDx=0;entryDy=0;exitX=0.5;exitY=1;exitDx=0;exitDy=0;entryPerimeter=0;" edge="1" parent="E_Wd-ubweMT3_UfSxpYX-21" target="E_Wd-ubweMT3_UfSxpYX-32">
          <mxGeometry width="50" height="50" relative="1" as="geometry">
            <mxPoint x="185" y="120" as="sourcePoint" />
            <mxPoint x="225" y="205" as="targetPoint" />
          </mxGeometry>
        </mxCell>
        <mxCell id="E_Wd-ubweMT3_UfSxpYX-60" value="" style="endArrow=classic;startArrow=none;html=1;fontFamily=Tahoma;fontSize=14;entryX=-0.002;entryY=0.522;entryDx=0;entryDy=0;entryPerimeter=0;startFill=0;" edge="1" parent="E_Wd-ubweMT3_UfSxpYX-21" target="E_Wd-ubweMT3_UfSxpYX-23">
          <mxGeometry width="50" height="50" relative="1" as="geometry">
            <mxPoint x="90" y="139" as="sourcePoint" />
            <mxPoint x="110" y="140" as="targetPoint" />
          </mxGeometry>
        </mxCell>
        <mxCell id="E_Wd-ubweMT3_UfSxpYX-32" value="" style="ellipse;whiteSpace=wrap;html=1;aspect=fixed;fontFamily=Tahoma;fontSize=14;dashed=1;" vertex="1" parent="1">
          <mxGeometry x="780" y="220" width="430" height="430" as="geometry" />
        </mxCell>
        <mxCell id="E_Wd-ubweMT3_UfSxpYX-36" value="&lt;div&gt;P2P Network&lt;/div&gt;" style="text;html=1;align=center;verticalAlign=middle;resizable=0;points=[];autosize=1;fontSize=14;fontFamily=Tahoma;" vertex="1" parent="1">
          <mxGeometry x="950" y="190" width="90" height="20" as="geometry" />
        </mxCell>
        <mxCell id="E_Wd-ubweMT3_UfSxpYX-39" value="Peer" style="shape=hexagon;perimeter=hexagonPerimeter2;whiteSpace=wrap;html=1;fixedSize=1;fontFamily=Tahoma;fontSize=14;fillColor=#b1ddf0;strokeColor=#10739e;" vertex="1" parent="1">
          <mxGeometry x="850" y="350" width="70" height="55" as="geometry" />
        </mxCell>
        <mxCell id="E_Wd-ubweMT3_UfSxpYX-40" value="Peer" style="shape=hexagon;perimeter=hexagonPerimeter2;whiteSpace=wrap;html=1;fixedSize=1;fontFamily=Tahoma;fontSize=14;size=20;fillColor=#b1ddf0;strokeColor=#10739e;" vertex="1" parent="1">
          <mxGeometry x="890" y="490" width="70" height="55" as="geometry" />
        </mxCell>
        <mxCell id="E_Wd-ubweMT3_UfSxpYX-41" value="Peer" style="shape=hexagon;perimeter=hexagonPerimeter2;whiteSpace=wrap;html=1;fixedSize=1;fontFamily=Tahoma;fontSize=14;fillColor=#b1ddf0;strokeColor=#10739e;" vertex="1" parent="1">
          <mxGeometry x="970" y="280" width="70" height="55" as="geometry" />
        </mxCell>
        <mxCell id="E_Wd-ubweMT3_UfSxpYX-42" value="Peer" style="shape=hexagon;perimeter=hexagonPerimeter2;whiteSpace=wrap;html=1;fixedSize=1;fontFamily=Tahoma;fontSize=14;fillColor=#b1ddf0;strokeColor=#10739e;" vertex="1" parent="1">
          <mxGeometry x="1040" y="450" width="70" height="55" as="geometry" />
        </mxCell>
        <mxCell id="E_Wd-ubweMT3_UfSxpYX-43" value="" style="endArrow=classic;startArrow=classic;html=1;fontFamily=Tahoma;fontSize=14;entryX=0;entryY=0.75;entryDx=0;entryDy=0;" edge="1" parent="1" target="E_Wd-ubweMT3_UfSxpYX-41">
          <mxGeometry width="50" height="50" relative="1" as="geometry">
            <mxPoint x="910" y="370" as="sourcePoint" />
            <mxPoint x="870" y="390" as="targetPoint" />
          </mxGeometry>
        </mxCell>
        <mxCell id="E_Wd-ubweMT3_UfSxpYX-44" value="" style="endArrow=classic;startArrow=classic;html=1;fontFamily=Tahoma;fontSize=14;entryX=0.5;entryY=0;entryDx=0;entryDy=0;exitX=0.5;exitY=1;exitDx=0;exitDy=0;" edge="1" parent="1" source="E_Wd-ubweMT3_UfSxpYX-39" target="E_Wd-ubweMT3_UfSxpYX-40">
          <mxGeometry width="50" height="50" relative="1" as="geometry">
            <mxPoint x="920" y="380" as="sourcePoint" />
            <mxPoint x="987.7777777777778" y="328.19444444444446" as="targetPoint" />
          </mxGeometry>
        </mxCell>
        <mxCell id="E_Wd-ubweMT3_UfSxpYX-45" value="" style="endArrow=classic;startArrow=classic;html=1;fontFamily=Tahoma;fontSize=14;entryX=0.5;entryY=1;entryDx=0;entryDy=0;" edge="1" parent="1" target="E_Wd-ubweMT3_UfSxpYX-41">
          <mxGeometry width="50" height="50" relative="1" as="geometry">
            <mxPoint x="950" y="505" as="sourcePoint" />
            <mxPoint x="1017.7777777777778" y="453.19444444444446" as="targetPoint" />
          </mxGeometry>
        </mxCell>
        <mxCell id="E_Wd-ubweMT3_UfSxpYX-46" value="" style="endArrow=classic;startArrow=classic;html=1;fontFamily=Tahoma;fontSize=14;entryX=1;entryY=0.75;entryDx=0;entryDy=0;exitX=0.5;exitY=0;exitDx=0;exitDy=0;" edge="1" parent="1" source="E_Wd-ubweMT3_UfSxpYX-42" target="E_Wd-ubweMT3_UfSxpYX-41">
          <mxGeometry width="50" height="50" relative="1" as="geometry">
            <mxPoint x="940" y="400" as="sourcePoint" />
            <mxPoint x="1007.7777777777778" y="348.19444444444446" as="targetPoint" />
          </mxGeometry>
        </mxCell>
        <mxCell id="E_Wd-ubweMT3_UfSxpYX-47" value="" style="endArrow=classic;startArrow=classic;html=1;fontFamily=Tahoma;fontSize=14;entryX=0;entryY=0.75;entryDx=0;entryDy=0;exitX=0.871;exitY=0.797;exitDx=0;exitDy=0;exitPerimeter=0;" edge="1" parent="1" source="E_Wd-ubweMT3_UfSxpYX-40" target="E_Wd-ubweMT3_UfSxpYX-42">
          <mxGeometry width="50" height="50" relative="1" as="geometry">
            <mxPoint x="950" y="410" as="sourcePoint" />
            <mxPoint x="1017.7777777777778" y="358.19444444444446" as="targetPoint" />
          </mxGeometry>
        </mxCell>
        <mxCell id="E_Wd-ubweMT3_UfSxpYX-48" value="" style="endArrow=classic;startArrow=classic;html=1;fontFamily=Tahoma;fontSize=14;entryX=0;entryY=0.25;entryDx=0;entryDy=0;exitX=1;exitY=0.75;exitDx=0;exitDy=0;" edge="1" parent="1" source="E_Wd-ubweMT3_UfSxpYX-39" target="E_Wd-ubweMT3_UfSxpYX-42">
          <mxGeometry width="50" height="50" relative="1" as="geometry">
            <mxPoint x="960" y="420" as="sourcePoint" />
            <mxPoint x="1027.7777777777778" y="368.19444444444446" as="targetPoint" />
          </mxGeometry>
        </mxCell>
        <mxCell id="E_Wd-ubweMT3_UfSxpYX-51" value="Client" style="whiteSpace=wrap;html=1;aspect=fixed;fontFamily=Tahoma;fontSize=14;fillColor=#fff2cc;strokeColor=#d6b656;" vertex="1" parent="1">
          <mxGeometry x="200" y="322.5" width="80" height="80" as="geometry" />
        </mxCell>
        <mxCell id="E_Wd-ubweMT3_UfSxpYX-52" value="Client" style="whiteSpace=wrap;html=1;aspect=fixed;fontFamily=Tahoma;fontSize=14;fillColor=#fff2cc;strokeColor=#d6b656;" vertex="1" parent="1">
          <mxGeometry x="200" y="440" width="80" height="80" as="geometry" />
        </mxCell>
        <mxCell id="E_Wd-ubweMT3_UfSxpYX-53" value="Client" style="whiteSpace=wrap;html=1;aspect=fixed;fontFamily=Tahoma;fontSize=14;fillColor=#fff2cc;strokeColor=#d6b656;" vertex="1" parent="1">
          <mxGeometry x="200" y="552.5" width="80" height="80" as="geometry" />
        </mxCell>
        <mxCell id="E_Wd-ubweMT3_UfSxpYX-56" value="" style="endArrow=classic;startArrow=none;html=1;fontFamily=Tahoma;fontSize=14;entryX=0.006;entryY=0.224;entryDx=0;entryDy=0;entryPerimeter=0;exitX=1;exitY=0.5;exitDx=0;exitDy=0;startFill=0;" edge="1" parent="1" source="E_Wd-ubweMT3_UfSxpYX-51" target="E_Wd-ubweMT3_UfSxpYX-25">
          <mxGeometry width="50" height="50" relative="1" as="geometry">
            <mxPoint x="280" y="350" as="sourcePoint" />
            <mxPoint x="330" y="300" as="targetPoint" />
          </mxGeometry>
        </mxCell>
        <mxCell id="E_Wd-ubweMT3_UfSxpYX-57" value="" style="endArrow=classic;startArrow=none;html=1;fontFamily=Tahoma;fontSize=14;entryX=0.016;entryY=0.522;entryDx=0;entryDy=0;entryPerimeter=0;exitX=1;exitY=0.5;exitDx=0;exitDy=0;startFill=0;" edge="1" parent="1" source="E_Wd-ubweMT3_UfSxpYX-52" target="E_Wd-ubweMT3_UfSxpYX-25">
          <mxGeometry width="50" height="50" relative="1" as="geometry">
            <mxPoint x="300" y="465.94" as="sourcePoint" />
            <mxPoint x="504.6600000000001" y="544.99874" as="targetPoint" />
            <Array as="points">
              <mxPoint x="440" y="479" />
            </Array>
          </mxGeometry>
        </mxCell>
        <mxCell id="E_Wd-ubweMT3_UfSxpYX-58" value="" style="endArrow=classic;startArrow=none;html=1;fontFamily=Tahoma;fontSize=14;exitX=1;exitY=0.5;exitDx=0;exitDy=0;entryX=0.001;entryY=0.744;entryDx=0;entryDy=0;entryPerimeter=0;startFill=0;" edge="1" parent="1" source="E_Wd-ubweMT3_UfSxpYX-53" target="E_Wd-ubweMT3_UfSxpYX-25">
          <mxGeometry width="50" height="50" relative="1" as="geometry">
            <mxPoint x="300" y="392.5" as="sourcePoint" />
            <mxPoint x="485.08500000000004" y="534.01862" as="targetPoint" />
          </mxGeometry>
        </mxCell>
      </root>
    </mxGraphModel>
  </diagram>
</mxfile>
